<?xml version="1.0" encoding="utf-8"?>
<!-- Generator: Adobe Illustrator 16.0.0, SVG Export Plug-In . SVG Version: 6.00 Build 0)  -->
<!DOCTYPE svg PUBLIC "-//W3C//DTD SVG 1.1//EN" "http://www.w3.org/Graphics/SVG/1.1/DTD/svg11.dtd">
<svg version="1.1" id="Layer_1" xmlns="http://www.w3.org/2000/svg" xmlns:xlink="http://www.w3.org/1999/xlink" x="0px" y="0px"
	 width="107px" height="107px" viewBox="0 0 107 107" enable-background="new 0 0 107 107" xml:space="preserve">
<path fill="#AA83B1" d="M85.05,40.127c0-17.447-13.807-31.667-31.092-32.334v0c-0.015,0-0.031-0.001-0.045-0.001
	c-0.173-0.006-0.347-0.013-0.521-0.016c-0.234-0.005-0.467-0.009-0.703-0.009c-17.873,0-32.362,14.489-32.362,32.362
	c0,17.873,14.489,32.361,32.362,32.361c0.234,0,0.468-0.005,0.701-0.01c0.18-0.004,0.356-0.01,0.534-0.017
	c0.01,0,0.021,0,0.034-0.001l0,0C71.243,71.794,85.05,57.574,85.05,40.127z"/>
<path fill="none" stroke="#D5B2D5" stroke-width="7" stroke-miterlimit="10" d="M86.251,40.127
	c0-18.077-14.306-32.808-32.214-33.499v0c-0.015,0-0.031-0.001-0.047-0.001c-0.178-0.007-0.357-0.013-0.538-0.018
	C53.208,6.603,52.966,6.6,52.723,6.6c-18.516,0-33.527,15.011-33.527,33.527c0,18.516,15.011,33.527,33.527,33.527
	c0.243,0,0.485-0.004,0.728-0.011c0.184-0.003,0.369-0.01,0.552-0.017c0.011,0,0.023,0,0.034-0.001l0,0
	C71.945,72.935,86.251,58.203,86.251,40.127z"/>
<g>
	<path fill="#FFFFFF" d="M46.226,20.572c-1.912,0-3.772,0.588-5.689,1.798c-5.607,3.539-3.061,11.327-1.375,16.479
		c0.522,1.594,1.014,3.099,1.087,3.912c0.13,1.431-0.014,3.262-0.168,5.199c-0.244,3.08-0.496,6.263,0.235,8.948
		c1.239,4.546,5.188,7.85,5.355,7.987c0.367,0.304,0.813,0.47,1.267,0.492c0.041,0.003,0.081,0.004,0.122,0.004
		c1.196,0,2.166-0.969,2.166-2.166c0-0.197-0.026-0.389-0.076-0.569c-0.185-1.091-1.129-7.233,0.294-11.153
		c1.052-2.897,2.595-4.431,3.275-4.854V22.34c-0.291-0.011-0.973-0.299-1.524-0.534C49.968,21.286,48.286,20.572,46.226,20.572z"/>
	<path fill="#FFFFFF" d="M66.315,38.849c1.687-5.153,4.233-12.94-1.373-16.479c-1.917-1.209-3.777-1.798-5.688-1.798
		c-2.062,0-3.744,0.714-4.973,1.234c-0.562,0.239-1.262,0.537-1.542,0.537c-0.005,0-0.011-0.001-0.017-0.001v24.306
		c0.005-0.003,0.011-0.007,0.017-0.011c0.668,0.408,2.232,1.944,3.293,4.867c1.56,4.292,0.279,11.251,0.265,11.321
		c-0.169,0.896,0.241,1.802,1.027,2.267c0.34,0.202,0.723,0.301,1.102,0.301c0.492,0,0.981-0.167,1.38-0.496
		c0.167-0.138,4.116-3.441,5.354-7.987c0.732-2.686,0.48-5.87,0.235-8.95c-0.153-1.938-0.299-3.767-0.168-5.198
		C65.303,41.948,65.796,40.443,66.315,38.849z"/>
</g>
<path fill="#FFFFFF" d="M64.252,35.805c-1.496-7.674-8.985-11.231-4.306-12.542C64.627,21.953,67.248,33.933,64.252,35.805z"/>
<path fill="#AA83B1" d="M59.946,23.263c-4.68,1.311,2.81,4.867,4.306,12.542C67.248,33.933,64.627,21.953,59.946,23.263z"/>
<g>
	<path fill="#FFFFFF" d="M4.771,78.403h2.233c0.611,0,1.118,0.096,1.522,0.286s0.728,0.445,0.969,0.764
		c0.242,0.318,0.412,0.682,0.511,1.088c0.099,0.408,0.148,0.827,0.148,1.261c0,0.484-0.062,0.934-0.187,1.351
		c-0.124,0.417-0.316,0.777-0.578,1.083c-0.261,0.306-0.59,0.547-0.988,0.722c-0.397,0.174-0.871,0.262-1.417,0.262H4.771V78.403z
		 M7.024,84.856c0.318,0,0.638-0.049,0.959-0.148c0.321-0.098,0.612-0.264,0.873-0.496c0.261-0.232,0.473-0.544,0.635-0.937
		c0.162-0.39,0.243-0.882,0.243-1.474c0-0.464-0.046-0.862-0.138-1.193c-0.092-0.331-0.213-0.609-0.363-0.835
		s-0.321-0.404-0.516-0.534c-0.194-0.132-0.395-0.231-0.601-0.301C7.91,78.867,7.703,78.821,7.497,78.8
		c-0.207-0.022-0.393-0.034-0.558-0.034H5.191v6.091H7.024z"/>
	<path fill="#FFFFFF" d="M12.389,81.4h0.029c0.044-0.159,0.125-0.309,0.243-0.449c0.118-0.139,0.261-0.261,0.43-0.362
		c0.169-0.102,0.357-0.179,0.563-0.233c0.207-0.055,0.422-0.078,0.645-0.071v0.362c-0.191-0.025-0.409-0.007-0.654,0.057
		c-0.245,0.064-0.479,0.204-0.702,0.421c-0.089,0.095-0.167,0.188-0.233,0.276c-0.067,0.089-0.124,0.188-0.167,0.297
		c-0.044,0.107-0.08,0.228-0.105,0.362c-0.025,0.133-0.041,0.292-0.047,0.478v2.682h-0.363v-4.906h0.363V81.4z"/>
	<path fill="#FFFFFF" d="M18.699,84.245H18.68c-0.057,0.146-0.14,0.285-0.249,0.415c-0.108,0.131-0.24,0.247-0.396,0.35
		c-0.156,0.101-0.333,0.181-0.53,0.237c-0.197,0.058-0.414,0.087-0.649,0.087c-0.522,0-0.926-0.113-1.212-0.34
		c-0.286-0.226-0.43-0.573-0.43-1.045c0-0.287,0.057-0.521,0.172-0.701c0.115-0.182,0.259-0.324,0.434-0.43
		c0.175-0.105,0.369-0.18,0.583-0.225s0.418-0.076,0.616-0.095l0.563-0.049c0.261-0.019,0.466-0.049,0.616-0.09
		c0.149-0.042,0.262-0.099,0.339-0.173c0.076-0.072,0.124-0.166,0.143-0.281c0.019-0.114,0.028-0.257,0.028-0.43
		c0-0.133-0.025-0.258-0.076-0.372c-0.051-0.115-0.13-0.217-0.238-0.305c-0.108-0.09-0.249-0.16-0.42-0.211
		c-0.172-0.051-0.382-0.076-0.63-0.076c-0.439,0-0.794,0.108-1.064,0.325c-0.271,0.216-0.418,0.544-0.444,0.982h-0.363
		c0.025-0.541,0.199-0.946,0.52-1.218c0.322-0.27,0.778-0.404,1.37-0.404s1.023,0.115,1.293,0.349
		c0.271,0.231,0.406,0.535,0.406,0.911v2.854c0,0.071,0.001,0.141,0.005,0.211c0.003,0.069,0.014,0.134,0.033,0.19
		c0.019,0.058,0.051,0.104,0.095,0.139c0.044,0.034,0.108,0.053,0.191,0.053c0.063,0,0.152-0.01,0.267-0.029v0.307
		c-0.096,0.025-0.194,0.037-0.296,0.037c-0.146,0-0.262-0.02-0.348-0.058c-0.085-0.038-0.151-0.089-0.196-0.151
		c-0.044-0.064-0.075-0.14-0.09-0.225c-0.016-0.087-0.024-0.18-0.024-0.282V84.245z M18.699,82.432
		c-0.089,0.108-0.224,0.181-0.405,0.219c-0.182,0.039-0.384,0.067-0.606,0.086l-0.611,0.059c-0.179,0.019-0.356,0.045-0.535,0.08
		c-0.178,0.036-0.339,0.095-0.482,0.177c-0.143,0.083-0.259,0.196-0.348,0.339c-0.089,0.144-0.134,0.329-0.134,0.559
		c0,0.362,0.115,0.632,0.343,0.807c0.229,0.175,0.544,0.263,0.945,0.263c0.414,0,0.741-0.074,0.983-0.224
		c0.242-0.15,0.426-0.322,0.554-0.516c0.127-0.194,0.208-0.382,0.244-0.564c0.035-0.181,0.052-0.304,0.052-0.366V82.432z"/>
	<path fill="#FFFFFF" d="M21.715,84.235h0.487v0.983h-0.487V84.235z"/>
	<path fill="#FFFFFF" d="M28.455,78.403h0.42v6.453h3.866v0.362h-4.286V78.403z"/>
	<path fill="#FFFFFF" d="M33.715,82.766c0-0.35,0.049-0.679,0.147-0.988c0.099-0.308,0.244-0.58,0.435-0.815
		c0.191-0.236,0.426-0.422,0.706-0.56c0.28-0.137,0.602-0.204,0.964-0.204s0.684,0.067,0.964,0.204
		c0.28,0.138,0.515,0.323,0.706,0.56c0.191,0.235,0.336,0.508,0.435,0.815c0.099,0.31,0.148,0.639,0.148,0.988
		s-0.049,0.682-0.148,0.993s-0.243,0.584-0.435,0.815c-0.191,0.233-0.426,0.417-0.706,0.554c-0.28,0.137-0.602,0.206-0.964,0.206
		s-0.685-0.069-0.964-0.206s-0.515-0.32-0.706-0.554c-0.191-0.231-0.336-0.504-0.435-0.815S33.715,83.115,33.715,82.766z
		 M34.077,82.766c0,0.293,0.042,0.574,0.125,0.845c0.082,0.271,0.203,0.512,0.363,0.721c0.159,0.21,0.356,0.377,0.592,0.502
		c0.235,0.124,0.506,0.186,0.811,0.186c0.306,0,0.576-0.062,0.812-0.186c0.235-0.125,0.433-0.292,0.592-0.502
		c0.159-0.209,0.28-0.45,0.363-0.721c0.083-0.271,0.124-0.552,0.124-0.845s-0.042-0.575-0.124-0.845
		C37.65,81.65,37.53,81.41,37.371,81.2c-0.159-0.211-0.356-0.377-0.592-0.501s-0.506-0.187-0.812-0.187
		c-0.305,0-0.576,0.062-0.811,0.187c-0.236,0.124-0.433,0.29-0.592,0.501c-0.16,0.21-0.281,0.45-0.363,0.721
		C34.119,82.19,34.077,82.473,34.077,82.766z"/>
	<path fill="#FFFFFF" d="M40.387,81.4h0.029c0.044-0.159,0.125-0.309,0.243-0.449c0.118-0.139,0.261-0.261,0.43-0.362
		c0.168-0.102,0.356-0.179,0.563-0.233c0.207-0.055,0.421-0.078,0.645-0.071v0.362c-0.191-0.025-0.409-0.007-0.654,0.057
		c-0.245,0.064-0.479,0.204-0.701,0.421c-0.089,0.095-0.167,0.188-0.234,0.276c-0.066,0.089-0.123,0.188-0.167,0.297
		c-0.044,0.107-0.079,0.228-0.104,0.362c-0.026,0.133-0.042,0.292-0.048,0.478v2.682h-0.363v-4.906h0.363V81.4z"/>
	<path fill="#FFFFFF" d="M43.652,82.813v0.058c0,0.286,0.038,0.56,0.115,0.82c0.077,0.261,0.19,0.49,0.34,0.688
		s0.338,0.354,0.564,0.468c0.226,0.114,0.49,0.172,0.79,0.172c0.491,0,0.881-0.13,1.168-0.386c0.287-0.259,0.485-0.616,0.593-1.075
		h0.363c-0.108,0.573-0.342,1.013-0.702,1.317c-0.359,0.307-0.835,0.459-1.427,0.459c-0.363,0-0.68-0.066-0.95-0.196
		c-0.271-0.13-0.497-0.309-0.678-0.535c-0.181-0.226-0.316-0.492-0.406-0.802c-0.089-0.308-0.133-0.641-0.133-0.997
		c0-0.344,0.046-0.673,0.138-0.988s0.231-0.591,0.416-0.83c0.184-0.238,0.415-0.43,0.692-0.572c0.277-0.144,0.603-0.215,0.979-0.215
		c0.344,0,0.647,0.063,0.912,0.19c0.264,0.128,0.485,0.3,0.663,0.521c0.178,0.219,0.313,0.474,0.406,0.764
		c0.092,0.289,0.139,0.6,0.139,0.931c0,0.032-0.001,0.068-0.005,0.109c-0.003,0.042-0.004,0.074-0.004,0.101H43.652z M47.26,82.499
		c-0.013-0.268-0.058-0.521-0.134-0.76c-0.076-0.239-0.19-0.449-0.339-0.63c-0.15-0.182-0.332-0.325-0.546-0.434
		c-0.214-0.109-0.458-0.163-0.732-0.163c-0.293,0-0.552,0.056-0.775,0.167s-0.412,0.258-0.564,0.439
		c-0.153,0.181-0.271,0.394-0.354,0.635c-0.083,0.242-0.134,0.49-0.153,0.745H47.26z"/>
	<path fill="#FFFFFF" d="M49.427,80.312h0.362v1.05h0.02c0.063-0.185,0.154-0.349,0.271-0.492s0.254-0.265,0.411-0.367
		c0.156-0.102,0.326-0.178,0.511-0.229c0.184-0.051,0.372-0.076,0.563-0.076c0.287,0,0.529,0.035,0.73,0.104
		c0.2,0.07,0.364,0.162,0.491,0.276c0.128,0.115,0.228,0.244,0.301,0.387c0.074,0.144,0.127,0.288,0.158,0.435
		c0.032,0.146,0.051,0.288,0.058,0.425c0.005,0.137,0.009,0.256,0.009,0.358v3.035H52.95v-3.103c0-0.12-0.009-0.272-0.029-0.458
		c-0.019-0.184-0.075-0.36-0.167-0.53c-0.092-0.168-0.233-0.313-0.42-0.434c-0.188-0.121-0.448-0.182-0.778-0.182
		c-0.28,0-0.528,0.051-0.745,0.152c-0.216,0.103-0.401,0.244-0.554,0.425c-0.153,0.183-0.269,0.397-0.348,0.649
		c-0.08,0.251-0.12,0.527-0.12,0.825v2.654h-0.362V80.312z"/>
	<path fill="#FFFFFF" d="M58.591,84.245h-0.018c-0.059,0.146-0.142,0.285-0.248,0.415c-0.109,0.131-0.241,0.247-0.397,0.35
		c-0.155,0.101-0.333,0.181-0.53,0.237c-0.197,0.058-0.413,0.087-0.648,0.087c-0.521,0-0.926-0.113-1.212-0.34
		c-0.286-0.226-0.432-0.573-0.432-1.045c0-0.287,0.059-0.521,0.173-0.701c0.115-0.182,0.259-0.324,0.435-0.43
		s0.369-0.18,0.583-0.225c0.212-0.045,0.419-0.076,0.616-0.095l0.562-0.049c0.261-0.019,0.467-0.049,0.617-0.09
		c0.148-0.042,0.261-0.099,0.337-0.173c0.078-0.072,0.125-0.166,0.146-0.281c0.018-0.114,0.027-0.257,0.027-0.43
		c0-0.133-0.025-0.258-0.076-0.372c-0.051-0.115-0.131-0.217-0.239-0.305c-0.107-0.09-0.246-0.16-0.419-0.211
		c-0.172-0.051-0.382-0.076-0.63-0.076c-0.44,0-0.796,0.108-1.065,0.325c-0.27,0.216-0.418,0.544-0.443,0.982h-0.362
		c0.025-0.541,0.199-0.946,0.52-1.218c0.32-0.27,0.779-0.404,1.369-0.404c0.593,0,1.023,0.115,1.294,0.349
		c0.271,0.231,0.405,0.535,0.405,0.911v2.854c0,0.071,0.002,0.141,0.006,0.211c0.004,0.069,0.015,0.134,0.032,0.19
		c0.021,0.058,0.053,0.104,0.097,0.139c0.045,0.034,0.108,0.053,0.189,0.053c0.065,0,0.154-0.01,0.269-0.029v0.307
		c-0.096,0.025-0.194,0.037-0.295,0.037c-0.147,0-0.263-0.02-0.35-0.058c-0.086-0.038-0.15-0.089-0.196-0.151
		c-0.043-0.064-0.074-0.14-0.091-0.225c-0.014-0.087-0.023-0.18-0.023-0.282V84.245z M58.591,82.432
		c-0.089,0.108-0.225,0.181-0.405,0.219c-0.182,0.039-0.384,0.067-0.607,0.086l-0.61,0.059c-0.178,0.019-0.356,0.045-0.534,0.08
		c-0.178,0.036-0.339,0.095-0.481,0.177c-0.144,0.083-0.26,0.196-0.349,0.339c-0.09,0.144-0.134,0.329-0.134,0.559
		c0,0.362,0.114,0.632,0.345,0.807c0.228,0.175,0.543,0.263,0.943,0.263c0.415,0,0.741-0.074,0.983-0.224
		c0.243-0.15,0.426-0.322,0.555-0.516c0.127-0.194,0.208-0.382,0.243-0.564c0.034-0.181,0.052-0.304,0.052-0.366V82.432z"/>
	<path fill="#FFFFFF" d="M64.48,81.812c0-0.497,0.074-0.963,0.221-1.398c0.146-0.437,0.357-0.814,0.634-1.137
		c0.277-0.321,0.618-0.574,1.022-0.759c0.403-0.185,0.86-0.277,1.369-0.277c0.402,0,0.748,0.053,1.042,0.158
		c0.291,0.104,0.538,0.235,0.738,0.391c0.2,0.157,0.364,0.326,0.491,0.512c0.127,0.185,0.225,0.357,0.292,0.521
		c0.066,0.162,0.112,0.303,0.138,0.419c0.025,0.118,0.038,0.184,0.038,0.196h-0.419c-0.045-0.286-0.138-0.543-0.277-0.769
		c-0.141-0.226-0.314-0.418-0.525-0.578c-0.21-0.158-0.443-0.279-0.7-0.363c-0.26-0.081-0.531-0.123-0.817-0.123
		c-0.445,0-0.843,0.086-1.193,0.258c-0.35,0.172-0.646,0.402-0.888,0.691c-0.241,0.29-0.426,0.629-0.553,1.018
		c-0.129,0.388-0.192,0.802-0.192,1.241c0,0.438,0.063,0.853,0.192,1.24c0.127,0.389,0.312,0.728,0.553,1.017
		c0.242,0.29,0.538,0.521,0.888,0.692c0.351,0.172,0.748,0.258,1.193,0.258c0.331,0,0.642-0.068,0.931-0.205
		c0.29-0.137,0.542-0.317,0.76-0.544c0.215-0.227,0.39-0.487,0.52-0.783c0.131-0.296,0.205-0.603,0.225-0.922h0.42
		c-0.037,0.408-0.139,0.784-0.3,1.127c-0.163,0.344-0.37,0.642-0.622,0.894c-0.252,0.25-0.541,0.446-0.873,0.587
		c-0.331,0.139-0.685,0.21-1.06,0.21c-0.509,0-0.966-0.094-1.369-0.277c-0.404-0.184-0.745-0.438-1.022-0.759
		c-0.276-0.322-0.488-0.7-0.634-1.136C64.555,82.774,64.48,82.308,64.48,81.812z"/>
	<path fill="#FFFFFF" d="M75.487,84.245h-0.019c-0.058,0.146-0.141,0.285-0.248,0.415c-0.108,0.131-0.241,0.247-0.396,0.35
		c-0.156,0.101-0.333,0.181-0.529,0.237c-0.197,0.058-0.415,0.087-0.65,0.087c-0.521,0-0.926-0.113-1.212-0.34
		c-0.286-0.226-0.429-0.573-0.429-1.045c0-0.287,0.056-0.521,0.172-0.701c0.114-0.182,0.259-0.324,0.433-0.43
		c0.176-0.105,0.37-0.18,0.583-0.225c0.214-0.045,0.419-0.076,0.616-0.095l0.563-0.049c0.261-0.019,0.466-0.049,0.616-0.09
		c0.148-0.042,0.261-0.099,0.339-0.173c0.076-0.072,0.123-0.166,0.143-0.281c0.019-0.114,0.027-0.257,0.027-0.43
		c0-0.133-0.025-0.258-0.076-0.372c-0.051-0.115-0.13-0.217-0.237-0.305c-0.108-0.09-0.248-0.16-0.42-0.211
		s-0.383-0.076-0.631-0.076c-0.438,0-0.793,0.108-1.065,0.325c-0.27,0.216-0.418,0.544-0.443,0.982h-0.362
		c0.025-0.541,0.199-0.946,0.52-1.218c0.323-0.27,0.779-0.404,1.37-0.404c0.592,0,1.023,0.115,1.295,0.349
		c0.27,0.231,0.404,0.535,0.404,0.911v2.854c0,0.071,0.002,0.141,0.005,0.211c0.004,0.069,0.015,0.134,0.035,0.19
		c0.018,0.058,0.051,0.104,0.094,0.139c0.045,0.034,0.108,0.053,0.192,0.053c0.063,0,0.151-0.01,0.266-0.029v0.307
		c-0.096,0.025-0.193,0.037-0.295,0.037c-0.146,0-0.263-0.02-0.35-0.058c-0.085-0.038-0.15-0.089-0.195-0.151
		c-0.044-0.064-0.074-0.14-0.091-0.225c-0.015-0.087-0.023-0.18-0.023-0.282V84.245z M75.487,82.432
		c-0.089,0.108-0.225,0.181-0.406,0.219c-0.181,0.039-0.382,0.067-0.604,0.086l-0.612,0.059c-0.178,0.019-0.355,0.045-0.535,0.08
		c-0.177,0.036-0.338,0.095-0.481,0.177c-0.143,0.083-0.259,0.196-0.348,0.339c-0.091,0.144-0.134,0.329-0.134,0.559
		c0,0.362,0.113,0.632,0.344,0.807c0.229,0.175,0.544,0.263,0.944,0.263c0.414,0,0.742-0.074,0.983-0.224
		c0.242-0.15,0.428-0.322,0.554-0.516c0.127-0.194,0.209-0.382,0.243-0.564c0.036-0.181,0.053-0.304,0.053-0.366V82.432z"/>
	<path fill="#FFFFFF" d="M78.047,78.403H78.4v2.949h0.018c0.07-0.19,0.169-0.357,0.297-0.501c0.127-0.144,0.273-0.264,0.44-0.363
		c0.165-0.098,0.345-0.172,0.534-0.219c0.192-0.048,0.39-0.071,0.595-0.071c0.364,0,0.678,0.063,0.941,0.19
		c0.267,0.128,0.487,0.302,0.665,0.524c0.18,0.224,0.312,0.482,0.398,0.778c0.085,0.296,0.129,0.616,0.129,0.959
		c0,0.586-0.08,1.056-0.239,1.409c-0.159,0.353-0.352,0.624-0.574,0.811c-0.223,0.188-0.456,0.312-0.699,0.373
		c-0.241,0.06-0.449,0.091-0.621,0.091c-0.326,0-0.602-0.052-0.828-0.152c-0.227-0.103-0.413-0.222-0.56-0.359
		c-0.146-0.137-0.259-0.271-0.335-0.405c-0.076-0.133-0.123-0.231-0.144-0.295H78.4v1.097h-0.354V78.403z M80.284,85.019
		c0.326,0,0.602-0.07,0.824-0.21s0.403-0.323,0.545-0.549c0.14-0.226,0.243-0.48,0.307-0.764s0.096-0.564,0.096-0.846
		c0-0.272-0.038-0.537-0.11-0.791c-0.072-0.255-0.185-0.483-0.335-0.684s-0.336-0.361-0.555-0.481
		c-0.221-0.121-0.479-0.182-0.771-0.182c-0.319,0-0.597,0.054-0.832,0.163c-0.237,0.108-0.431,0.257-0.585,0.448
		c-0.152,0.19-0.268,0.416-0.344,0.678c-0.076,0.261-0.114,0.544-0.114,0.849c0,0.3,0.034,0.593,0.104,0.879
		c0.071,0.286,0.18,0.539,0.33,0.759s0.343,0.396,0.58,0.53C79.659,84.951,79.947,85.019,80.284,85.019z"/>
	<path fill="#FFFFFF" d="M84.584,81.4h0.029c0.046-0.159,0.125-0.309,0.243-0.449c0.117-0.139,0.261-0.261,0.431-0.362
		c0.169-0.102,0.355-0.179,0.562-0.233c0.209-0.055,0.422-0.078,0.646-0.071v0.362c-0.19-0.025-0.41-0.007-0.654,0.057
		c-0.244,0.064-0.479,0.204-0.701,0.421c-0.089,0.095-0.167,0.188-0.233,0.276c-0.067,0.089-0.123,0.188-0.169,0.297
		c-0.043,0.107-0.077,0.228-0.104,0.362c-0.025,0.133-0.042,0.292-0.048,0.478v2.682h-0.362v-4.906h0.362V81.4z"/>
	<path fill="#FFFFFF" d="M87.849,82.813v0.058c0,0.286,0.038,0.56,0.116,0.82c0.076,0.261,0.19,0.49,0.339,0.688
		c0.15,0.197,0.339,0.354,0.565,0.468c0.226,0.114,0.488,0.172,0.789,0.172c0.491,0,0.881-0.13,1.169-0.386
		c0.286-0.259,0.483-0.616,0.592-1.075h0.362c-0.106,0.573-0.34,1.013-0.701,1.317c-0.358,0.307-0.835,0.459-1.427,0.459
		c-0.362,0-0.68-0.066-0.949-0.196c-0.271-0.13-0.497-0.309-0.678-0.535c-0.182-0.226-0.317-0.492-0.406-0.802
		c-0.09-0.308-0.134-0.641-0.134-0.997c0-0.344,0.047-0.673,0.138-0.988c0.093-0.315,0.232-0.591,0.417-0.83
		c0.185-0.238,0.415-0.43,0.691-0.572c0.275-0.144,0.604-0.215,0.979-0.215c0.345,0,0.646,0.063,0.911,0.19
		c0.265,0.128,0.485,0.3,0.663,0.521c0.18,0.219,0.313,0.474,0.406,0.764c0.092,0.289,0.139,0.6,0.139,0.931
		c0,0.032-0.001,0.068-0.005,0.109c-0.004,0.042-0.004,0.074-0.004,0.101H87.849z M91.457,82.499
		c-0.013-0.268-0.058-0.521-0.134-0.76s-0.188-0.449-0.339-0.63c-0.15-0.182-0.331-0.325-0.545-0.434
		c-0.216-0.109-0.459-0.163-0.733-0.163c-0.294,0-0.551,0.056-0.775,0.167c-0.224,0.111-0.411,0.258-0.563,0.439
		c-0.154,0.181-0.272,0.394-0.355,0.635c-0.083,0.242-0.134,0.49-0.152,0.745H91.457z"/>
	<path fill="#FFFFFF" d="M93.988,81.4h0.028c0.044-0.159,0.125-0.309,0.243-0.449c0.118-0.139,0.261-0.261,0.43-0.362
		c0.168-0.102,0.356-0.179,0.562-0.233c0.207-0.055,0.423-0.078,0.646-0.071v0.362c-0.192-0.025-0.409-0.007-0.654,0.057
		c-0.246,0.064-0.479,0.204-0.703,0.421c-0.088,0.095-0.166,0.188-0.233,0.276c-0.066,0.089-0.121,0.188-0.166,0.297
		c-0.046,0.107-0.08,0.228-0.105,0.362c-0.025,0.133-0.042,0.292-0.047,0.478v2.682h-0.364v-4.906h0.364V81.4z"/>
	<path fill="#FFFFFF" d="M100.298,84.245h-0.021c-0.056,0.146-0.14,0.285-0.248,0.415c-0.106,0.131-0.239,0.247-0.395,0.35
		c-0.158,0.101-0.334,0.181-0.531,0.237c-0.197,0.058-0.413,0.087-0.648,0.087c-0.521,0-0.926-0.113-1.212-0.34
		c-0.286-0.226-0.431-0.573-0.431-1.045c0-0.287,0.058-0.521,0.172-0.701c0.116-0.182,0.259-0.324,0.435-0.43
		s0.369-0.18,0.583-0.225c0.212-0.045,0.419-0.076,0.614-0.095l0.563-0.049c0.261-0.019,0.468-0.049,0.616-0.09
		c0.15-0.042,0.263-0.099,0.339-0.173c0.076-0.072,0.125-0.166,0.143-0.281c0.021-0.114,0.029-0.257,0.029-0.43
		c0-0.133-0.025-0.258-0.076-0.372c-0.051-0.115-0.131-0.217-0.239-0.305c-0.106-0.09-0.248-0.16-0.42-0.211
		c-0.171-0.051-0.381-0.076-0.631-0.076c-0.438,0-0.793,0.108-1.063,0.325c-0.27,0.216-0.418,0.544-0.443,0.982h-0.362
		c0.025-0.541,0.197-0.946,0.52-1.218c0.321-0.27,0.777-0.404,1.37-0.404c0.592,0,1.023,0.115,1.293,0.349
		c0.27,0.231,0.406,0.535,0.406,0.911v2.854c0,0.071,0.001,0.141,0.005,0.211c0.002,0.069,0.015,0.134,0.033,0.19
		c0.02,0.058,0.05,0.104,0.096,0.139c0.043,0.034,0.108,0.053,0.19,0.053c0.063,0,0.153-0.01,0.268-0.029v0.307
		c-0.096,0.025-0.193,0.037-0.295,0.037c-0.146,0-0.263-0.02-0.35-0.058c-0.085-0.038-0.15-0.089-0.196-0.151
		c-0.045-0.064-0.074-0.14-0.09-0.225c-0.017-0.087-0.023-0.18-0.023-0.282V84.245z M100.298,82.432
		c-0.089,0.108-0.225,0.181-0.406,0.219c-0.181,0.039-0.384,0.067-0.606,0.086l-0.61,0.059c-0.178,0.019-0.357,0.045-0.535,0.08
		c-0.179,0.036-0.339,0.095-0.481,0.177c-0.144,0.083-0.259,0.196-0.348,0.339c-0.091,0.144-0.135,0.329-0.135,0.559
		c0,0.362,0.114,0.632,0.345,0.807c0.229,0.175,0.543,0.263,0.943,0.263c0.413,0,0.741-0.074,0.984-0.224
		c0.24-0.15,0.426-0.322,0.552-0.516c0.129-0.194,0.209-0.382,0.245-0.564c0.034-0.181,0.053-0.304,0.053-0.366V82.432z"/>
</g>
<rect x="10.761" y="95.006" fill="none" width="83.856" height="5.395"/>
<text transform="matrix(1 0 0 1 13.7744 99.9004)"><tspan x="0" y="0" fill="#AA83B1" font-family="'Marvel-BoldItalic'" font-size="6.8943">C</tspan><tspan x="4.543" y="0" fill="#AA83B1" font-family="'Marvel-BoldItalic'" font-size="6.8943">ONSU</tspan><tspan x="24.447" y="0" fill="#AA83B1" font-family="'Marvel-BoldItalic'" font-size="6.8943">L</tspan><tspan x="27.783" y="0" fill="#AA83B1" font-family="'Marvel-BoldItalic'" font-size="6.8943">T</tspan><tspan x="31.713" y="0" fill="#AA83B1" font-family="'Marvel-BoldItalic'" font-size="6.8943">ORIO DEN</tspan><tspan x="66.067" y="0" fill="#AA83B1" font-family="'Marvel-BoldItalic'" font-size="6.8943">T</tspan><tspan x="69.667" y="0" fill="#AA83B1" font-family="'Marvel-BoldItalic'" font-size="6.8943">AL</tspan></text>
<rect x="7.372" y="89.554" fill="#AA83B1" width="90.634" height="0.528"/>
<path fill="#3DC3D8" d="M52.723,22.341"/>
</svg>
