<?xml version="1.0" encoding="utf-8"?>
<!-- Generator: Adobe Illustrator 16.0.0, SVG Export Plug-In . SVG Version: 6.00 Build 0)  -->
<!DOCTYPE svg PUBLIC "-//W3C//DTD SVG 1.1//EN" "http://www.w3.org/Graphics/SVG/1.1/DTD/svg11.dtd">
<svg version="1.1" id="Layer_1" xmlns="http://www.w3.org/2000/svg" xmlns:xlink="http://www.w3.org/1999/xlink" x="0px" y="0px"
	 viewBox="0 0 512 512" enable-background="new 0 0 512 512" xml:space="preserve">
<title>Artboard</title>
<desc>Created with Sketch.</desc>
<g>
	<g>
		<g transform="translate(5.000000, 10.000000)">
			<path fill="none" stroke="#000000" stroke-width="7" d="M444.04,45.398H60.031c-21.209,0-38.386,17.195-38.386,38.404v249.712
				c0,21.209,17.195,38.403,38.386,38.403h269.5l76.089,76.089v-76.089h38.423c21.21,0,38.404-17.194,38.404-38.403V83.803
				C482.444,62.593,465.25,45.398,444.04,45.398L444.04,45.398z M177.045,227.914c-10.605,0-19.193-8.588-19.193-19.193
				s8.588-19.193,19.193-19.193s19.193,8.606,19.193,19.193C196.238,219.308,187.65,227.914,177.045,227.914L177.045,227.914z
				 M252.035,227.914c-10.604,0-19.193-8.588-19.193-19.193s8.588-19.193,19.193-19.193c10.605,0,19.193,8.606,19.193,19.193
				C271.229,219.308,262.641,227.914,252.035,227.914L252.035,227.914z M328.826,227.914c-10.604,0-19.193-8.588-19.193-19.193
				s8.589-19.193,19.193-19.193c10.604,0,19.191,8.606,19.191,19.193C348.019,219.308,339.432,227.914,328.826,227.914
				L328.826,227.914z"/>
		</g>
	</g>
</g>
</svg>
